<svg width="122" height="22" viewBox="0 0 122 22" fill="none" xmlns="http://www.w3.org/2000/svg">
<g id="09:01:00">
<path d="M4.3199 14.0958V4.20771H11.5719L4.3199 14.0958ZM14.0919 16.8308H6.9799L14.0919 7.03288V16.8308ZM16.0519 21.0385L17.9839 18.9647V2.13391L16.0519 0H2.3319L0.399902 2.13391V18.9647L2.3319 21.0385H16.0519Z" fill="white"/>
<path d="M20.771 10.5493L22.703 12.6532H34.463V16.8308H24.691V14.757H20.771V18.9647L22.703 21.0385H36.423L38.355 18.9647V2.13391L36.423 0H22.703L20.771 2.13391V10.5493ZM24.691 8.44547V4.20771H34.463V8.44547H24.691Z" fill="white"/>
<path d="M40.8621 21.0385H44.7821V16.8308H40.8621V21.0385ZM40.8621 12.6532H44.7821V8.44547H40.8621V12.6532Z" fill="white"/>
<path d="M51.2144 14.0958V4.20771H58.4664L51.2144 14.0958ZM60.9864 16.8308H53.8744L60.9864 7.03288V16.8308ZM62.9464 21.0385L64.8784 18.9647V2.13391L62.9464 0H49.2264L47.2944 2.13391V18.9647L49.2264 21.0385H62.9464Z" fill="white"/>
<path d="M74.6375 21.0385V0H66.8255V4.20771H70.7455V21.0385H74.6375Z" fill="white"/>
<path d="M77.1472 21.0385H81.0672V16.8308H77.1472V21.0385ZM77.1472 12.6532H81.0672V8.44547H77.1472V12.6532Z" fill="white"/>
<path d="M87.4996 14.0958V4.20771H94.7516L87.4996 14.0958ZM97.2716 16.8308H90.1596L97.2716 7.03288V16.8308ZM99.2316 21.0385L101.164 18.9647V2.13391L99.2316 0H85.5116L83.5796 2.13391V18.9647L85.5116 21.0385H99.2316Z" fill="white"/>
<path d="M107.871 14.0958V4.20771H115.123L107.871 14.0958ZM117.643 16.8308H110.531L117.643 7.03288V16.8308ZM119.603 21.0385L121.535 18.9647V2.13391L119.603 0H105.883L103.951 2.13391V18.9647L105.883 21.0385H119.603Z" fill="white"/>
</g>
</svg>
