<svg width="54" height="55" viewBox="0 0 54 55" fill="none" xmlns="http://www.w3.org/2000/svg">
<g id="Frame" clip-path="url(#clip0_752_967)">
<path id="Vector" d="M26.9722 15.0774L31.8394 10.2115L44.2592 22.6301L39.3921 27.4973L26.9722 15.0774ZM9.69745 32.37L14.5646 27.5028L26.9845 39.9227L22.1173 44.7885L9.69745 32.37ZM9.42628 22.3658C7.97045 20.9032 7.15314 18.9235 7.15314 16.8599C7.15314 14.7963 7.97045 12.8166 9.42628 11.354L10.8028 9.97754C12.2653 8.52171 14.245 7.7044 16.3086 7.7044C18.3723 7.7044 20.3519 8.52171 21.8145 9.97754L22.0898 10.2528L26.9763 5.3526L26.701 5.0773C23.9448 2.32619 20.2097 0.781057 16.3155 0.781057C12.4213 0.781057 8.68619 2.32619 5.93005 5.0773L4.55358 6.45378C1.80246 9.20992 0.257328 12.945 0.257328 16.8392C0.257328 20.7335 1.80246 24.4686 4.55358 27.2247L4.82887 27.5L9.70158 22.6273L9.42628 22.3658ZM49.1237 27.5L44.251 32.3727L44.5263 32.648C45.9821 34.1106 46.7994 36.0903 46.7994 38.1539C46.7994 40.2175 45.9821 42.1972 44.5263 43.6598L43.1498 45.0362C41.6872 46.4921 39.7076 47.3094 37.6439 47.3094C35.5803 47.3094 33.6006 46.4921 32.138 45.0362L31.8628 44.761L26.9763 49.6474L27.2516 49.9227C30.0077 52.6738 33.7428 54.219 37.6371 54.219C41.5313 54.219 45.2664 52.6738 48.0225 49.9227L49.399 48.5462C52.1501 45.7901 53.6952 42.055 53.6952 38.1608C53.6952 34.2666 52.1501 30.5314 49.399 27.7753L49.1237 27.5Z" fill="#40DDFF" fill-opacity="0.41"/>
<path id="Vector_2" d="M9.68231 22.6328L22.1022 10.2129L26.968 15.0787L14.5495 27.5L9.68231 22.6328ZM32.1105 9.95001C33.5731 8.49418 35.5528 7.67687 37.6164 7.67687C39.68 7.67687 41.6597 8.49418 43.1223 9.95001L44.4988 11.3265C45.9546 12.7891 46.7719 14.7687 46.7719 16.8324C46.7719 18.896 45.9546 20.8757 44.4988 22.3382L44.2235 22.6135L49.1237 27.5L49.399 27.2247C52.1501 24.4686 53.6952 20.7335 53.6952 16.8392C53.6952 12.945 52.1501 9.20992 49.399 6.45378L48.0225 5.0773C45.2664 2.32619 41.5313 0.781057 37.6371 0.781057C33.7428 0.781057 30.0077 2.32619 27.2516 5.0773L26.9763 5.3526L31.849 10.2253L32.1105 9.95001ZM21.842 45.05C20.3795 46.5058 18.3998 47.3232 16.3362 47.3232C14.2725 47.3232 12.2929 46.5058 10.8303 45.05L9.45381 43.6735C7.99798 42.2109 7.18067 40.2313 7.18067 38.1677C7.18067 36.104 7.99798 34.1244 9.45381 32.6618L9.72911 32.3865L4.82887 27.5L4.55358 27.7753C1.80246 30.5314 0.257328 34.2666 0.257328 38.1608C0.257328 42.055 1.80246 45.7901 4.55358 48.5462L5.93005 49.9227C8.68619 52.6738 12.4213 54.219 16.3155 54.219C20.2097 54.219 23.9448 52.6738 26.701 49.9227L26.9763 49.6474L22.1036 44.7747L21.842 45.05ZM26.9749 39.9213L39.3921 27.5L44.2592 32.3658L31.8394 44.7857L26.9749 39.9213Z" fill="#40DDFF" fill-opacity="0.41"/>
<g id="Vector_3" filter="url(#filter0_d_752_967)">
<path d="M4.82877 27.5014L9.69459 22.6356L14.5618 27.5L9.69459 32.3672L4.82877 27.5014ZM22.12 44.7898L26.9872 39.924L31.853 44.7898L26.9872 49.657L22.12 44.7898ZM39.3947 27.4986L44.2619 22.6314L49.1277 27.5L44.2619 32.3658L39.3947 27.4986ZM22.1035 10.2102L26.9693 5.34296L31.8365 10.2102L26.9693 15.076L22.1035 10.2102Z" fill="#0AF0FF"/>
</g>
<g id="Vector_4" filter="url(#filter1_d_752_967)">
<path d="M21.1261 27.2385C21.1261 28.79 21.7425 30.2779 22.8396 31.375C23.9366 32.4721 25.4246 33.0885 26.9761 33.0885C28.5276 33.0885 30.0156 32.4721 31.1127 31.375C32.2098 30.2779 32.8261 28.79 32.8261 27.2385C32.8261 25.6869 32.2098 24.199 31.1127 23.1019C30.0156 22.0048 28.5276 21.3885 26.9761 21.3885C25.4246 21.3885 23.9366 22.0048 22.8396 23.1019C21.7425 24.199 21.1261 25.6869 21.1261 27.2385Z" fill="#0AF0FF"/>
</g>
</g>
<defs>
<filter id="filter0_d_752_967" x="0.828766" y="1.34296" width="52.2989" height="52.3141" filterUnits="userSpaceOnUse" color-interpolation-filters="sRGB">
<feFlood flood-opacity="0" result="BackgroundImageFix"/>
<feColorMatrix in="SourceAlpha" type="matrix" values="0 0 0 0 0 0 0 0 0 0 0 0 0 0 0 0 0 0 127 0" result="hardAlpha"/>
<feOffset/>
<feGaussianBlur stdDeviation="2"/>
<feColorMatrix type="matrix" values="0 0 0 0 0.289258 0 0 0 0 0.956485 0 0 0 0 1 0 0 0 1 0"/>
<feBlend mode="normal" in2="BackgroundImageFix" result="effect1_dropShadow_752_967"/>
<feBlend mode="normal" in="SourceGraphic" in2="effect1_dropShadow_752_967" result="shape"/>
</filter>
<filter id="filter1_d_752_967" x="17.1261" y="17.3885" width="19.7" height="19.7" filterUnits="userSpaceOnUse" color-interpolation-filters="sRGB">
<feFlood flood-opacity="0" result="BackgroundImageFix"/>
<feColorMatrix in="SourceAlpha" type="matrix" values="0 0 0 0 0 0 0 0 0 0 0 0 0 0 0 0 0 0 127 0" result="hardAlpha"/>
<feOffset/>
<feGaussianBlur stdDeviation="2"/>
<feColorMatrix type="matrix" values="0 0 0 0 0.104167 0 0 0 0 0.945153 0 0 0 0 1 0 0 0 1 0"/>
<feBlend mode="normal" in2="BackgroundImageFix" result="effect1_dropShadow_752_967"/>
<feBlend mode="normal" in="SourceGraphic" in2="effect1_dropShadow_752_967" result="shape"/>
</filter>
<clipPath id="clip0_752_967">
<rect width="54" height="54" fill="white" transform="translate(0 0.5)"/>
</clipPath>
</defs>
</svg>
