<svg width="196" height="31" viewBox="0 0 196 31" fill="none" xmlns="http://www.w3.org/2000/svg">
<g id="logo">
<g id="SAMRT">
<path d="M5.583 19.1311H25.864L26.4859 19.6599V23.1696L25.7206 23.7465H0.177902V30.6696H30.743C31.2213 30.6696 31.6996 30.5414 32.178 30.2849C32.6882 29.9965 33.1346 29.6439 33.5173 29.2273C33.9318 28.8106 34.2667 28.3619 34.5218 27.8811C34.8088 27.3683 34.9523 26.8875 34.9523 26.4388V17.833C34.9523 16.7753 34.7928 15.8939 34.4739 15.1888C34.1869 14.4837 33.7883 13.9067 33.2781 13.458C32.7679 13.0093 32.178 12.6888 31.5083 12.4965C30.8705 12.3042 30.2168 12.208 29.5472 12.208H9.26611L8.59645 11.6792V7.97725L9.36178 7.59264H34.9523V0.669563H4.38718C3.94074 0.669563 3.46241 0.813794 2.9522 1.10226C2.47387 1.35866 2.02743 1.6952 1.61288 2.11187C1.19833 2.52854 0.84756 2.99328 0.560564 3.5061C0.305456 3.98687 0.177902 4.45161 0.177902 4.90033V13.5061C0.177902 14.5638 0.3214 15.4452 0.608396 16.1503C0.927281 16.8555 1.34183 17.4324 1.85205 17.8811C2.36226 18.3298 2.93625 18.6503 3.57402 18.8426C4.24368 19.0349 4.91334 19.1311 5.583 19.1311Z" fill="white"/>
<path d="M77.9288 30.6696H68.9363L66.6403 26.6311H49.1335L46.8854 30.6696H37.845L53.6776 0.669563H62.0962L77.9288 30.6696ZM63.2442 19.6599L57.8869 9.80418L52.6253 19.6599H63.2442Z" fill="white"/>
<path d="M103.559 30.6696H99.063L89.6878 16.3426V30.6696H81.2692V0.669563H89.3051L101.311 19.1792L113.317 0.669563H121.353V30.6696H112.934V16.3426L103.559 30.6696Z" fill="white"/>
<path d="M125.926 13.1696H150.368C150.623 13.0734 150.799 12.9773 150.894 12.8811C150.99 12.7849 151.07 12.6888 151.133 12.5926V8.16956C150.974 7.817 150.719 7.62469 150.368 7.59264H125.926V0.669563H155.39C155.837 0.669563 156.299 0.813794 156.778 1.10226C157.288 1.35866 157.75 1.6952 158.165 2.11187C158.579 2.52854 158.914 2.99328 159.169 3.5061C159.456 3.98687 159.6 4.45161 159.6 4.90033V14.4196C159.6 15.4452 159.361 16.3266 158.882 17.0638C158.436 17.801 157.83 18.4099 157.065 18.8907C156.331 19.3394 155.486 19.676 154.529 19.9003C153.605 20.0926 152.664 20.1888 151.707 20.1888L163.139 30.6696H151.372L139.701 20.1888H134.392V30.6696H125.926V13.1696Z" fill="white"/>
<path d="M175.327 30.6696H183.746V7.59264H195.178V0.669563H164.182V7.59264H175.327V30.6696Z" fill="white"/>
</g>
</g>
</svg>
