<svg width="38" height="38" viewBox="0 0 38 38" fill="none" xmlns="http://www.w3.org/2000/svg">
<g id="Group 23">
<g id="Group 20">
<rect id="Rectangle 30" x="1.04637" y="1" width="36" height="36" fill="black" fill-opacity="0.4"/>
<g id="Group 18">
<path id="Ellipse 8" d="M33.0464 19C33.0464 26.732 26.7784 33 19.0464 33C11.3144 33 5.04637 26.732 5.04637 19C5.04637 11.268 11.3144 5 19.0464 5C26.7784 5 33.0464 11.268 33.0464 19ZM7.36838 19C7.36838 25.4496 12.5968 30.678 19.0464 30.678C25.4959 30.678 30.7244 25.4496 30.7244 19C30.7244 12.5504 25.4959 7.32201 19.0464 7.32201C12.5968 7.32201 7.36838 12.5504 7.36838 19Z" fill="white" fill-opacity="0.18"/>
<path id="Ellipse 9" d="M6.417 21.3109C5.78627 21.4263 5.17631 21.0085 5.11354 20.3704C4.8606 17.799 5.32375 15.1993 6.46293 12.8634C7.6021 10.5275 9.36534 8.56182 11.5472 7.17782C12.0887 6.83437 12.7934 7.05776 13.0909 7.62581C13.3883 8.19386 13.165 8.89076 12.6293 9.24309C10.8838 10.391 9.4719 11.9907 8.54998 13.8812C7.62805 15.7716 7.23693 17.8692 7.40713 19.9513C7.45937 20.5904 7.04774 21.1955 6.417 21.3109Z" fill="white"/>
</g>
</g>
<g id="20">
<path d="M17.1544 16.28V17.132L11.2864 21.32V23H18.8224V21.32H14.1424L18.8224 17.972V15.452L17.9944 14.6H12.1144L11.2864 15.452V17.12H12.9664V16.28H17.1544Z" fill="white"/>
<path d="M21.4592 20.228V16.28H24.5672L21.4592 20.228ZM25.6472 21.32H22.5992L25.6472 17.408V21.32ZM26.4872 23L27.3152 22.172V15.452L26.4872 14.6H20.6072L19.7792 15.452V22.172L20.6072 23H26.4872Z" fill="white"/>
</g>
</g>
</svg>
