<svg width="93" height="21" viewBox="0 0 93 21" fill="none" xmlns="http://www.w3.org/2000/svg">
<g id="22,000">
<path d="M12.6686 3.56V5.264L0.932648 13.64V17H16.0046V13.64H6.64465L16.0046 6.944V1.904L14.3486 0.199997H2.58865L0.932648 1.904V5.24H4.29265V3.56H12.6686Z" fill="white"/>
<path d="M29.5343 3.56V5.264L17.7983 13.64V17H32.8703V13.64H23.5103L32.8703 6.944V1.904L31.2143 0.199997H19.4543L17.7983 1.904V5.24H21.1583V3.56H29.5343Z" fill="white"/>
<path d="M35.1439 20.36L38.5039 17V13.64H35.1439V20.36Z" fill="white"/>
<path d="M44.6173 11.456V3.56H50.8333L44.6173 11.456ZM52.9933 13.64H46.8973L52.9933 5.816V13.64ZM54.6733 17L56.3293 15.344V1.904L54.6733 0.199997H42.9133L41.2573 1.904V15.344L42.9133 17H54.6733Z" fill="white"/>
<path d="M62.6783 11.456V3.56H68.8943L62.6783 11.456ZM71.0543 13.64H64.9583L71.0543 5.816V13.64ZM72.7343 17L74.3903 15.344V1.904L72.7343 0.199997H60.9743L59.3183 1.904V15.344L60.9743 17H72.7343Z" fill="white"/>
<path d="M80.7392 11.456V3.56H86.9552L80.7392 11.456ZM89.1152 13.64H83.0192L89.1152 5.816V13.64ZM90.7952 17L92.4512 15.344V1.904L90.7952 0.199997H79.0352L77.3792 1.904V15.344L79.0352 17H90.7952Z" fill="white"/>
</g>
</svg>
