<svg width="38" height="38" viewBox="0 0 38 38" fill="none" xmlns="http://www.w3.org/2000/svg">
<g id="Group 22">
<g id="Group 19">
<rect id="Rectangle 30" x="1.04637" y="0.999969" width="36" height="36" fill="black" fill-opacity="0.4"/>
<g id="Group 18">
<path id="Ellipse 8" d="M33.0464 19C33.0464 26.732 26.7784 33 19.0464 33C11.3144 33 5.04637 26.732 5.04637 19C5.04637 11.268 11.3144 4.99997 19.0464 4.99997C26.7784 4.99997 33.0464 11.268 33.0464 19ZM7.36838 19C7.36838 25.4495 12.5968 30.678 19.0464 30.678C25.4959 30.678 30.7244 25.4495 30.7244 19C30.7244 12.5504 25.4959 7.32198 19.0464 7.32198C12.5968 7.32198 7.36838 12.5504 7.36838 19Z" fill="white" fill-opacity="0.18"/>
<path id="Ellipse 9" d="M14.9202 31.158C14.7141 31.7652 14.0524 32.0948 13.4643 31.8391C11.2925 30.8949 9.38941 29.4123 7.9399 27.5236C6.2541 25.327 5.25752 22.6798 5.0762 19.9168C4.89487 17.1538 5.53694 14.3991 6.92122 12.001C8.11146 9.93903 9.80446 8.22036 11.8343 7.00044C12.3839 6.67014 13.083 6.91045 13.3667 7.48551C13.6503 8.06056 13.4103 8.75189 12.8662 9.09121C11.2459 10.1018 9.89279 11.4978 8.93223 13.1618C7.77755 15.1622 7.24197 17.46 7.39322 19.7647C7.54447 22.0695 8.37576 24.2776 9.78196 26.1099C10.9518 27.6341 12.4757 28.8413 14.2142 29.6314C14.7979 29.8967 15.1262 30.5508 14.9202 31.158Z" fill="white"/>
</g>
</g>
<g id="25">
<path d="M17.1544 16.28V17.132L11.2864 21.32V23H18.8224V21.32H14.1424L18.8224 17.972V15.452L17.9944 14.6H12.1144L11.2864 15.452V17.12H12.9664V16.28H17.1544Z" fill="white"/>
<path d="M26.4872 23L27.3152 22.172V18.38L26.4872 17.552H21.4592V16.28H26.9552V14.6H19.7792V19.244H22.2872H25.6472V21.32H21.4592V20.492H19.7792V22.172L20.6072 23H26.4872Z" fill="white"/>
</g>
</g>
</svg>
