<svg width="89" height="21" viewBox="0 0 89 21" fill="none" xmlns="http://www.w3.org/2000/svg">
<g id="37,000">
<path d="M14.3816 17L16.0376 15.344V8.6L14.3816 6.92H11.8136L16.0376 4.976V0.199997H0.965607V5.24H4.32561V3.56H12.7016L5.98161 6.944V10.304H12.7016V13.64H4.32561V11.984H0.965607V15.344L2.62161 17H14.3816Z" fill="white"/>
<path d="M25.2538 17L32.9098 3.56V0.199997H17.8378V3.56H28.9498L21.1978 17H25.2538Z" fill="white"/>
<path d="M31.3509 20.36L34.7109 17V13.64H31.3509V20.36Z" fill="white"/>
<path d="M40.8244 11.456V3.56H47.0404L40.8244 11.456ZM49.2004 13.64H43.1044L49.2004 5.816V13.64ZM50.8804 17L52.5364 15.344V1.904L50.8804 0.199997H39.1204L37.4644 1.904V15.344L39.1204 17H50.8804Z" fill="white"/>
<path d="M58.8853 11.456V3.56H65.1013L58.8853 11.456ZM67.2613 13.64H61.1653L67.2613 5.816V13.64ZM68.9413 17L70.5973 15.344V1.904L68.9413 0.199997H57.1813L55.5253 1.904V15.344L57.1813 17H68.9413Z" fill="white"/>
<path d="M76.9462 11.456V3.56H83.1622L76.9462 11.456ZM85.3222 13.64H79.2262L85.3222 5.816V13.64ZM87.0022 17L88.6582 15.344V1.904L87.0022 0.199997H75.2422L73.5862 1.904V15.344L75.2422 17H87.0022Z" fill="white"/>
</g>
</svg>
