<svg width="42" height="21" viewBox="0 0 42 21" fill="none" xmlns="http://www.w3.org/2000/svg">
<g id="80">
<path d="M4.74639 16.8V12.63H15.2164V16.8H4.74639ZM4.74639 8.43V4.2H15.2164V8.43H4.74639ZM17.3164 21L19.3864 18.93V12.63L17.3164 10.53L19.3864 8.43V2.13L17.3164 0H2.61639L0.546387 2.13V8.43L2.61639 10.53L0.546387 12.63V18.93L2.61639 21H17.3164Z" fill="white"/>
<path d="M26.5726 14.07V4.2H34.3426L26.5726 14.07ZM37.0426 16.8H29.4226L37.0426 7.02V16.8ZM39.1426 21L41.2126 18.93V2.13L39.1426 0H24.4426L22.3726 2.13V18.93L24.4426 21H39.1426Z" fill="white"/>
</g>
</svg>
