<svg width="53" height="61" viewBox="0 0 53 61" fill="none" xmlns="http://www.w3.org/2000/svg">
<g id="Group 10">
<g id="Group 9">
<path id="Ellipse 4" d="M38.1904 30.1989C38.1904 39.005 31.0517 46.1437 22.2456 46.1437C13.4396 46.1437 6.30088 39.005 6.30088 30.1989C6.30088 21.3929 13.4396 14.2542 22.2456 14.2542C31.0517 14.2542 38.1904 21.3929 38.1904 30.1989ZM8.02088 30.1989C8.02088 38.055 14.3895 44.4237 22.2456 44.4237C30.1017 44.4237 36.4704 38.055 36.4704 30.1989C36.4704 22.3428 30.1017 15.9742 22.2456 15.9742C14.3895 15.9742 8.02088 22.3428 8.02088 30.1989Z" fill="white"/>
<path id="Ellipse 5" d="M15.6115 50.11C15.5236 50.3738 15.2381 50.5171 14.9764 50.423C12.3639 49.484 9.95645 48.0471 7.88833 46.1904C5.69522 44.2214 3.93054 41.8224 2.704 39.1424C1.47746 36.4625 0.815271 33.5589 0.758599 30.6121C0.705157 27.8333 1.19125 25.0722 2.18821 22.4812C2.2881 22.2216 2.58307 22.0992 2.84025 22.2051C3.09744 22.3111 3.21943 22.6053 3.11984 22.865C2.17532 25.3281 1.71492 27.9521 1.7657 30.5928C1.81972 33.4014 2.45087 36.1689 3.61992 38.7232C4.78897 41.2776 6.47094 43.5642 8.56126 45.4408C10.5266 47.2053 12.8134 48.5719 15.2949 49.4671C15.5565 49.5615 15.6994 49.8461 15.6115 50.11Z" fill="#676F75"/>
<path id="Ellipse 6" d="M7.70362 15.0662C7.51089 14.8657 7.51684 14.5464 7.72186 14.3584C9.76809 12.4823 12.1597 11.0192 14.7652 10.0519C17.5282 9.026 20.4727 8.57944 23.4157 8.73993C26.3586 8.90042 29.237 9.66453 31.8721 10.9848C34.357 12.2297 36.5753 13.9442 38.4054 16.0317C38.5888 16.2408 38.56 16.5589 38.3466 16.7373C38.1332 16.9157 37.816 16.8869 37.6324 16.678C35.8911 14.6963 33.7823 13.0684 31.4209 11.8853C28.9093 10.627 26.1658 9.89869 23.3608 9.74572C20.5558 9.59276 17.7493 10.0184 15.1158 10.9962C12.6398 11.9155 10.3665 13.3044 8.42 15.0849C8.21476 15.2726 7.89635 15.2668 7.70362 15.0662Z" fill="#676F75"/>
<path id="Ellipse 7" d="M42.5214 24.7829C42.7901 24.7111 43.0668 24.8707 43.1323 25.141C43.7856 27.8392 43.9104 30.64 43.4978 33.3886C43.0604 36.3032 42.0281 39.0967 40.4651 41.5955C38.9021 44.0942 36.8419 46.2447 34.4124 47.9134C32.1215 49.4869 29.5484 50.6003 26.8363 51.1933C26.5646 51.2528 26.3001 51.0738 26.247 50.8008C26.194 50.5277 26.3725 50.264 26.6442 50.2043C29.2206 49.6377 31.6651 48.5784 33.8421 47.0831C36.1577 45.4927 38.1214 43.4429 39.6111 41.0613C41.1008 38.6797 42.0847 36.0171 42.5017 33.2391C42.8937 30.6271 42.7767 27.9657 42.1588 25.401C42.0936 25.1306 42.2527 24.8547 42.5214 24.7829Z" fill="#676F75"/>
</g>
<g id="Polygon 1" filter="url(#filter0_d_11_26)">
<path d="M22.2455 22.2811L28.1229 29.0677H16.3682L22.2455 22.2811Z" fill="#06F8A1"/>
</g>
<g id="Polygon 2" filter="url(#filter1_d_11_26)">
<path d="M22.2455 29.0677L28.1229 35.8542H16.3682L22.2455 29.0677Z" fill="#06F8A1"/>
</g>
</g>
<defs>
<filter id="filter0_d_11_26" x="8.36819" y="14.2811" width="27.7547" height="22.7866" filterUnits="userSpaceOnUse" color-interpolation-filters="sRGB">
<feFlood flood-opacity="0" result="BackgroundImageFix"/>
<feColorMatrix in="SourceAlpha" type="matrix" values="0 0 0 0 0 0 0 0 0 0 0 0 0 0 0 0 0 0 127 0" result="hardAlpha"/>
<feOffset/>
<feGaussianBlur stdDeviation="4"/>
<feColorMatrix type="matrix" values="0 0 0 0 0.0235294 0 0 0 0 0.972549 0 0 0 0 0.631373 0 0 0 0.93 0"/>
<feBlend mode="normal" in2="BackgroundImageFix" result="effect1_dropShadow_11_26"/>
<feBlend mode="normal" in="SourceGraphic" in2="effect1_dropShadow_11_26" result="shape"/>
</filter>
<filter id="filter1_d_11_26" x="8.36819" y="21.0677" width="27.7547" height="22.7866" filterUnits="userSpaceOnUse" color-interpolation-filters="sRGB">
<feFlood flood-opacity="0" result="BackgroundImageFix"/>
<feColorMatrix in="SourceAlpha" type="matrix" values="0 0 0 0 0 0 0 0 0 0 0 0 0 0 0 0 0 0 127 0" result="hardAlpha"/>
<feOffset/>
<feGaussianBlur stdDeviation="4"/>
<feColorMatrix type="matrix" values="0 0 0 0 0.0235294 0 0 0 0 0.972549 0 0 0 0 0.631373 0 0 0 0.93 0"/>
<feBlend mode="normal" in2="BackgroundImageFix" result="effect1_dropShadow_11_26"/>
<feBlend mode="normal" in="SourceGraphic" in2="effect1_dropShadow_11_26" result="shape"/>
</filter>
</defs>
</svg>
