<svg width="199" height="209" viewBox="0 0 199 209" fill="none" xmlns="http://www.w3.org/2000/svg">
<g id="Group 7">
<g id="Group 6">
<g id="Group 4">
<path id="Ellipse 1" d="M73.7434 28.7566C116.68 12.8748 164.362 34.8069 180.243 77.7434C196.125 120.68 174.193 168.362 131.257 184.243C88.3202 200.125 40.6385 178.193 24.7567 135.257C8.87483 92.3202 30.8069 44.6385 73.7434 28.7566ZM130.609 182.493C172.579 166.969 194.018 120.361 178.493 78.3907C162.969 36.4207 116.361 14.9823 74.3907 30.5067C32.4208 46.031 10.9824 92.6394 26.5067 134.609C42.0311 176.579 88.6394 198.018 130.609 182.493Z" fill="#FFFEFE" fill-opacity="0.2"/>
<g id="Ellipse 3">
<path d="M93.506 25.0201C93.4504 24.517 93.8136 24.0635 94.3174 24.0135C111.736 22.2855 129.263 26.1157 144.382 34.9678C159.765 43.9744 171.835 57.6999 178.8 74.108C185.766 90.5161 187.257 108.733 183.052 126.055C178.847 143.377 169.169 158.882 155.456 170.27C141.742 181.658 124.723 188.322 106.923 189.273C89.1228 190.224 71.4903 185.412 56.6413 175.55C41.7923 165.689 30.5179 151.303 24.4908 134.527C18.567 118.039 18.0222 100.106 22.921 83.302C23.0627 82.816 23.5752 82.5423 24.0595 82.6893C24.5439 82.8364 24.8168 83.3484 24.6752 83.8345C19.8909 100.262 20.4255 117.791 26.216 133.907C32.1098 150.312 43.1349 164.38 57.6555 174.023C72.1761 183.667 89.4186 188.373 106.825 187.443C124.231 186.513 140.874 179.996 154.285 168.86C167.695 157.724 177.158 142.562 181.27 125.622C185.383 108.683 183.925 90.8696 177.113 74.8243C170.301 58.7792 158.499 45.3572 143.456 36.5498C128.677 27.8969 111.545 24.1509 94.5185 25.8358C94.0147 25.8856 93.5615 25.5233 93.506 25.0201Z" fill="#FFFEFE"/>
<path d="M93.506 25.0201C93.4504 24.517 93.8136 24.0635 94.3174 24.0135C111.736 22.2855 129.263 26.1157 144.382 34.9678C159.765 43.9744 171.835 57.6999 178.8 74.108C185.766 90.5161 187.257 108.733 183.052 126.055C178.847 143.377 169.169 158.882 155.456 170.27C141.742 181.658 124.723 188.322 106.923 189.273C89.1228 190.224 71.4903 185.412 56.6413 175.55C41.7923 165.689 30.5179 151.303 24.4908 134.527C18.567 118.039 18.0222 100.106 22.921 83.302C23.0627 82.816 23.5752 82.5423 24.0595 82.6893C24.5439 82.8364 24.8168 83.3484 24.6752 83.8345C19.8909 100.262 20.4255 117.791 26.216 133.907C32.1098 150.312 43.1349 164.38 57.6555 174.023C72.1761 183.667 89.4186 188.373 106.825 187.443C124.231 186.513 140.874 179.996 154.285 168.86C167.695 157.724 177.158 142.562 181.27 125.622C185.383 108.683 183.925 90.8696 177.113 74.8243C170.301 58.7792 158.499 45.3572 143.456 36.5498C128.677 27.8969 111.545 24.1509 94.5185 25.8358C94.0147 25.8856 93.5615 25.5233 93.506 25.0201Z" fill="white"/>
</g>
</g>
<g id="Ellipse 2" filter="url(#filter0_d_7_33)">
<path d="M161.537 142.012C163.391 143.13 163.996 145.547 162.779 147.337C154.787 159.09 143.478 168.244 130.251 173.602C115.811 179.453 99.8633 180.465 84.799 176.488C69.7348 172.51 56.3656 163.757 46.6957 151.541C37.0258 139.324 31.5761 124.302 31.1638 108.727C30.7514 93.1519 35.3986 77.8628 44.4085 65.1516C53.4184 52.4404 66.3057 42.9921 81.1384 38.223C95.9711 33.4539 111.95 33.6211 126.68 38.6994C140.171 43.3508 151.949 51.893 160.551 63.2066C161.862 64.93 161.386 67.3751 159.593 68.5899C157.801 69.8047 155.373 69.3283 154.051 67.6136C146.408 57.6991 136.013 50.2104 124.124 46.1116C110.997 41.5859 96.7571 41.4369 83.5383 45.6871C70.3196 49.9372 58.8345 58.3575 50.805 69.6856C42.7754 81.0136 38.6339 94.6391 39.0014 108.519C39.3689 122.4 44.2256 135.787 52.8433 146.674C61.461 157.562 73.3755 165.363 86.8006 168.907C100.226 172.452 114.438 171.55 127.307 166.336C138.962 161.614 148.947 153.585 156.054 143.28C157.284 141.498 159.683 140.894 161.537 142.012Z" fill="#06FFA5" fill-opacity="0.94"/>
</g>
<g id="Ellipse 3_2" filter="url(#filter1_d_7_33)">
<path d="M161.292 72.8579C163.169 71.7787 165.576 72.4211 166.551 74.3539C171.348 83.8579 173.987 94.3225 174.257 104.997C174.527 115.672 172.421 126.257 168.111 135.991C167.234 137.971 164.863 138.734 162.934 137.751C161.005 136.769 160.25 134.412 161.113 132.427C164.838 123.859 166.656 114.566 166.419 105.196C166.182 95.8249 163.897 86.636 159.743 78.268C158.78 76.3287 159.415 73.9371 161.292 72.8579Z" fill="#F7FFFC" fill-opacity="0.94"/>
</g>
</g>
<rect id="Rectangle 20" x="72.0846" y="106.82" width="62.221" height="0.970148" fill="#677681"/>
<path id="Union" fill-rule="evenodd" clip-rule="evenodd" d="M63.2167 66.8417C85.296 44.7624 121.094 44.7624 143.173 66.8417C165.252 88.921 165.252 124.719 143.173 146.798C121.094 168.877 85.296 168.877 63.2167 146.798C41.1373 124.719 41.1373 88.921 63.2167 66.8417ZM146.171 138.2C161.408 117.386 159.623 88.0041 140.817 69.1976C120.943 49.3237 89.2586 48.4588 68.3566 66.6029L70.7061 73.905L62.7905 72.1987C44.84 93.1024 45.7673 124.637 65.5726 144.442C86.3508 165.22 120.039 165.22 140.817 144.442C140.854 144.405 140.891 144.368 140.927 144.332L138.245 136.718L146.171 138.2Z" fill="white" fill-opacity="0.4"/>
</g>
<defs>
<filter id="filter0_d_7_33" x="24.1385" y="27.7645" width="146.273" height="158.111" filterUnits="userSpaceOnUse" color-interpolation-filters="sRGB">
<feFlood flood-opacity="0" result="BackgroundImageFix"/>
<feColorMatrix in="SourceAlpha" type="matrix" values="0 0 0 0 0 0 0 0 0 0 0 0 0 0 0 0 0 0 127 0" result="hardAlpha"/>
<feOffset/>
<feGaussianBlur stdDeviation="3.5"/>
<feColorMatrix type="matrix" values="0 0 0 0 0.0235294 0 0 0 0 0.996078 0 0 0 0 0.647059 0 0 0 0.6 0"/>
<feBlend mode="normal" in2="BackgroundImageFix" result="effect1_dropShadow_7_33"/>
<feBlend mode="normal" in="SourceGraphic" in2="effect1_dropShadow_7_33" result="shape"/>
</filter>
<filter id="filter1_d_7_33" x="152.297" y="65.3364" width="28.9824" height="79.8426" filterUnits="userSpaceOnUse" color-interpolation-filters="sRGB">
<feFlood flood-opacity="0" result="BackgroundImageFix"/>
<feColorMatrix in="SourceAlpha" type="matrix" values="0 0 0 0 0 0 0 0 0 0 0 0 0 0 0 0 0 0 127 0" result="hardAlpha"/>
<feOffset/>
<feGaussianBlur stdDeviation="3.5"/>
<feColorMatrix type="matrix" values="0 0 0 0 0.825 0 0 0 0 1 0 0 0 0 0.937198 0 0 0 0.6 0"/>
<feBlend mode="normal" in2="BackgroundImageFix" result="effect1_dropShadow_7_33"/>
<feBlend mode="normal" in="SourceGraphic" in2="effect1_dropShadow_7_33" result="shape"/>
</filter>
</defs>
</svg>
