<svg width="77" height="32" viewBox="0 0 77 32" fill="none" xmlns="http://www.w3.org/2000/svg">
<g id="Group 3">
<rect id="Rectangle 12" x="0.938721" y="0.591568" width="74.8567" height="30.2351" rx="4.5" stroke="white" stroke-opacity="0.5"/>
<g id="Beta">
<path d="M15.536 22.7071H20.1707C20.7873 22.7005 21.384 22.6043 21.9608 22.4187C22.5443 22.233 23.0582 21.9645 23.5024 21.6131C23.9466 21.2683 24.3014 20.8374 24.5666 20.3202C24.8318 19.803 24.9611 19.2063 24.9544 18.53C24.9544 18.099 24.8881 17.6979 24.7555 17.3266C24.6296 16.9553 24.4505 16.6205 24.2185 16.3221C23.9997 16.0502 23.7212 15.8016 23.3831 15.5762C23.0449 15.3507 22.6935 15.1949 22.3288 15.1087V15.0789C22.6802 14.9264 22.9786 14.764 23.2239 14.5916C23.4759 14.4192 23.7046 14.207 23.9102 13.9551C24.1091 13.7097 24.2649 13.4313 24.3776 13.1196C24.497 12.808 24.5599 12.4632 24.5666 12.0853C24.5732 11.409 24.4439 10.8288 24.1787 10.3448C23.9135 9.86081 23.5588 9.46299 23.1145 9.15137C22.6703 8.83974 22.1631 8.61099 21.5929 8.46513C21.0227 8.31263 20.4392 8.23306 19.8425 8.22643H15.536V22.7071ZM17.3859 15.9342H20.3198C20.711 15.9475 21.0757 16.0138 21.4138 16.1331C21.752 16.2525 22.047 16.4215 22.299 16.6403C22.5509 16.8658 22.7465 17.1376 22.8858 17.4559C23.0316 17.7741 23.1013 18.1388 23.0946 18.5499C23.0946 18.9543 23.0151 19.3157 22.8559 19.6339C22.7034 19.9522 22.4946 20.2207 22.2294 20.4395C21.9642 20.6583 21.6592 20.8307 21.3144 20.9567C20.9696 21.076 20.6049 21.139 20.2204 21.1457H17.3859V15.9342ZM17.3859 14.4026V9.79782H19.9021C20.2602 9.80446 20.6083 9.85087 20.9464 9.93706C21.2912 10.0233 21.5962 10.1559 21.8614 10.3349C22.12 10.5205 22.3255 10.7559 22.478 11.041C22.6371 11.3261 22.7167 11.6709 22.7167 12.0753C22.7167 12.4533 22.6371 12.7848 22.478 13.0699C22.3189 13.355 22.11 13.5937 21.8514 13.786C21.5929 13.9849 21.2978 14.1374 20.9663 14.2435C20.6348 14.3429 20.2966 14.396 19.9519 14.4026H17.3859Z" fill="white"/>
<path d="M32.5429 22.906C33.5905 22.906 34.469 22.6972 35.1784 22.2795C35.8945 21.8551 36.4316 21.3711 36.7896 20.8274L35.6658 19.9522C35.3276 20.3898 34.9033 20.7412 34.3927 21.0064C33.8822 21.2716 33.2987 21.4042 32.6423 21.4042C32.1451 21.4042 31.6909 21.3114 31.2798 21.1258C30.8687 20.9401 30.5173 20.6849 30.2256 20.36C29.9405 20.055 29.715 19.7036 29.5493 19.3057C29.3902 18.9079 29.2874 18.4471 29.241 17.9233V17.8537H36.9289V17.0282C36.9289 16.279 36.8327 15.5828 36.6404 14.9397C36.4548 14.2965 36.1697 13.7363 35.7851 13.2589C35.4006 12.7881 34.9165 12.4201 34.3331 12.1549C33.7562 11.8831 33.0799 11.7471 32.3042 11.7471C31.6876 11.7471 31.0842 11.8731 30.4941 12.1251C29.9106 12.377 29.3902 12.7384 28.9327 13.2091C28.4685 13.6865 28.0972 14.27 27.8188 14.9595C27.5403 15.6425 27.401 16.4182 27.401 17.2868V17.7045C27.401 18.4537 27.527 19.1466 27.779 19.7831C28.0309 20.4196 28.3823 20.97 28.8332 21.4341C29.2841 21.8982 29.8244 22.2596 30.4543 22.5181C31.0908 22.7767 31.787 22.906 32.5429 22.906ZM32.3042 13.2589C32.7749 13.2589 33.1794 13.3451 33.5175 13.5174C33.8623 13.6898 34.1474 13.9153 34.3729 14.1937C34.5983 14.4722 34.774 14.8037 34.9 15.1883C35.0259 15.5662 35.0889 15.9209 35.0889 16.2525V16.342H29.3006C29.3736 15.8447 29.4996 15.4071 29.6786 15.0292C29.8642 14.6446 30.0897 14.3197 30.3549 14.0545C30.6201 13.7959 30.9184 13.6003 31.25 13.4677C31.5815 13.3285 31.9329 13.2589 32.3042 13.2589Z" fill="white"/>
<path d="M44.378 9.34033H42.5282V11.9461H39.7037V13.3683H42.5282V19.2162C42.5282 19.8793 42.6144 20.4462 42.7868 20.9169C42.9658 21.381 43.2078 21.759 43.5128 22.0507C43.8178 22.3491 44.1758 22.5679 44.5869 22.7071C45.0046 22.8397 45.4522 22.906 45.9296 22.906C46.2147 22.906 46.4998 22.8928 46.7849 22.8662C47.0766 22.8397 47.3518 22.7999 47.6103 22.7469C47.8689 22.7005 48.1076 22.6441 48.3264 22.5778C48.5452 22.5049 48.7309 22.422 48.8834 22.3292L48.6248 21.0263C48.5121 21.0528 48.3662 21.086 48.1872 21.1258C48.0148 21.1589 47.8291 21.1921 47.6302 21.2252C47.4247 21.2584 47.2158 21.2882 47.0037 21.3147C46.7915 21.3346 46.586 21.3446 46.387 21.3446C46.1152 21.3446 45.8566 21.3114 45.6113 21.2451C45.3726 21.1788 45.1604 21.0628 44.9748 20.897C44.7891 20.7379 44.6433 20.5224 44.5372 20.2506C44.4311 19.9787 44.378 19.6339 44.378 19.2162V13.3683H48.4756V11.9461H44.378V9.34033Z" fill="white"/>
<path d="M59.3262 22.7071H61.2457V22.548C61.1263 22.2496 61.0335 21.9015 60.9672 21.5037C60.9009 21.0993 60.8677 20.718 60.8677 20.36V15.3574C60.8677 14.754 60.7583 14.2269 60.5395 13.776C60.3207 13.3252 60.0224 12.9472 59.6444 12.6422C59.2599 12.3439 58.8057 12.1218 58.2819 11.9759C57.7581 11.8234 57.1912 11.7471 56.5812 11.7471C55.9115 11.7471 55.3115 11.84 54.7811 12.0256C54.2573 12.2113 53.813 12.4533 53.4484 12.7516C53.0771 13.0566 52.792 13.3981 52.593 13.776C52.4008 14.154 52.3013 14.5385 52.2947 14.9297H54.1446C54.1446 14.7043 54.1976 14.4888 54.3037 14.2833C54.4164 14.0711 54.5722 13.8887 54.7711 13.7363C54.97 13.5838 55.212 13.4611 55.4971 13.3683C55.7889 13.2754 56.1171 13.229 56.4817 13.229C56.8729 13.229 57.2243 13.2788 57.536 13.3782C57.8542 13.4777 58.1228 13.6169 58.3416 13.7959C58.5604 13.9816 58.7294 14.2037 58.8488 14.4623C58.9681 14.7209 59.0278 15.0126 59.0278 15.3375V16.1828H57.0188C56.2696 16.1828 55.59 16.2558 54.98 16.4017C54.3766 16.5475 53.8594 16.7663 53.4285 17.0581C52.9975 17.3564 52.6627 17.7277 52.424 18.172C52.1919 18.6162 52.0759 19.1334 52.0759 19.7235C52.0759 20.1743 52.1621 20.5953 52.3345 20.9865C52.5135 21.3711 52.7654 21.7026 53.0903 21.9811C53.4086 22.2662 53.7965 22.4916 54.254 22.6574C54.7181 22.8231 55.2352 22.906 55.8055 22.906C56.1569 22.906 56.4884 22.8696 56.8 22.7966C57.1116 22.7237 57.4067 22.6242 57.6852 22.4983C57.957 22.3723 58.2056 22.2264 58.4311 22.0607C58.6631 21.8949 58.872 21.7192 59.0576 21.5335C59.0775 21.759 59.1074 21.9778 59.1471 22.1899C59.1936 22.3955 59.2532 22.5679 59.3262 22.7071ZM56.074 21.3048C55.7159 21.3048 55.401 21.2584 55.1292 21.1656C54.8573 21.0727 54.6319 20.9434 54.4529 20.7777C54.2738 20.6186 54.1379 20.4263 54.0451 20.2008C53.9589 19.9754 53.9158 19.7301 53.9158 19.4649C53.9158 19.1864 53.9655 18.9378 54.065 18.719C54.1711 18.5002 54.3236 18.3112 54.5225 18.1521C54.801 17.9266 55.1756 17.7609 55.6463 17.6548C56.1237 17.5421 56.6807 17.4857 57.3172 17.4857H59.0278V19.6638C58.9217 19.876 58.7758 20.0815 58.5902 20.2804C58.4045 20.4727 58.1857 20.6451 57.9338 20.7976C57.6752 20.9501 57.3901 21.0727 57.0785 21.1656C56.7669 21.2584 56.432 21.3048 56.074 21.3048Z" fill="white"/>
</g>
</g>
</svg>
