<svg width="37" height="37" viewBox="0 0 37 37" fill="none" xmlns="http://www.w3.org/2000/svg">
<g id="Misc/circuit-board">
<path id="Vector" d="M33.5312 2.3125H3.46875L2.3125 3.46875V33.5312L3.46875 34.6875H33.5312L34.6875 33.5312V3.46875L33.5312 2.3125ZM32.375 32.375H11.5625V27.75H16.8813C17.575 29.1375 19.1938 30.0625 20.8125 30.0625C23.3563 30.0625 25.4375 27.9813 25.4375 25.4375C25.4375 22.8937 23.3563 20.8125 20.8125 20.8125C18.2688 20.8125 16.1875 22.8937 16.1875 25.4375H9.25V32.375H4.625V4.625H9.25V9.94375C7.8625 10.6375 6.9375 12.2563 6.9375 13.875C6.9375 16.4187 9.01875 18.5 11.5625 18.5C14.1062 18.5 16.1875 16.4187 16.1875 13.875H20.8125C20.8125 16.4187 22.8937 18.5 25.4375 18.5C27.9813 18.5 30.0625 16.4187 30.0625 13.875C30.0625 11.3313 27.9813 9.25 25.4375 9.25C23.8188 9.25 22.2 10.175 21.5063 11.5625H15.4937C14.8 10.175 13.1812 9.25 11.5625 9.25V4.625H32.375V32.375ZM18.5 25.4375C18.5 24.05 19.425 23.125 20.8125 23.125C22.2 23.125 23.125 24.05 23.125 25.4375C23.125 26.825 22.2 27.75 20.8125 27.75C19.425 27.75 18.5 26.825 18.5 25.4375ZM11.5625 11.5625C12.95 11.5625 13.875 12.4875 13.875 13.875C13.875 15.2625 12.95 16.1875 11.5625 16.1875C10.175 16.1875 9.25 15.2625 9.25 13.875C9.25 12.4875 10.175 11.5625 11.5625 11.5625ZM25.4375 11.5625C26.825 11.5625 27.75 12.4875 27.75 13.875C27.75 15.2625 26.825 16.1875 25.4375 16.1875C24.05 16.1875 23.125 15.2625 23.125 13.875C23.125 12.4875 24.05 11.5625 25.4375 11.5625Z" fill="#06F7A1"/>
</g>
</svg>
